# xmcd
#
# Track frame offsets:
#	150
#	14881
#	30821
#	48149
#	64187
#	78517
#	95781
#	113842
#	127878
#	141439
#	153950
#	171617
#	186580
#	199861
#	212886
#	229033
#	249209
#
# Disc length: 3528 seconds
#
# Revision: 0
# Processed by: cddbd v1.5.2PL0 Copyright (c) Steve Scherf et al.
# Submitted via: EasyCDDAExtractor 2010.6.0.0
#
DISCID=f10dc611
DTITLE=Various Artist - Hott Country 26
DYEAR=1900
DGENRE=Country
TTITLE0=Twain,Shania - Youre Still The One
TTITLE1=Byrd,Tracy - Im From The Country
TTITLE2=Crittenden,Melodie - Broken Road
TTITLE3=Lynns,The - Woman To Woman
TTITLE4=Akins,Rhett - Better Than It Used To Be
TTITLE5=Mavericks - To Be With You
TTITLE6=King,Matt - A Womans Tears
TTITLE7=Berg,Matraca - Back In The Saddle
TTITLE8=Womack,Lee Ann - Buckaroo
TTITLE9=Tippe,Rick - Never Givin Up
TTITLE10=Farmers Daughter - Inclemency
TTITLE11=Guthro,Bruce - Walk This Road
TTITLE12=Mccoy,Jason - A Little Bit Of You (Goes A Long Way)
TTITLE13=Lauderdale,Jim - Goodbye Song
TTITLE14=Little Texas - All In The Line Of Love
TTITLE15=Neilson,Don - In My Day
TTITLE16=Thompson Brothers Band - Back On The Farm
EXTD=
EXTT0=
EXTT1=
EXTT2=
EXTT3=
EXTT4=
EXTT5=
EXTT6=
EXTT7=
EXTT8=
EXTT9=
EXTT10=
EXTT11=
EXTT12=
EXTT13=
EXTT14=
EXTT15=
EXTT16=
PLAYORDER=
